<?xml version="1.0" encoding="UTF-8" standalone="no"?>
<!-- Created with Inkscape (http://www.inkscape.org/) -->

<svg
   xmlns:dc="http://purl.org/dc/elements/1.1/"
   xmlns:cc="http://creativecommons.org/ns#"
   xmlns:rdf="http://www.w3.org/1999/02/22-rdf-syntax-ns#"
   xmlns:svg="http://www.w3.org/2000/svg"
   xmlns="http://www.w3.org/2000/svg"
   xmlns:sodipodi="http://sodipodi.sourceforge.net/DTD/sodipodi-0.dtd"
   xmlns:inkscape="http://www.inkscape.org/namespaces/inkscape"
   version="1.1"
   id="svg10"
   xml:space="preserve"
   width="1830.6667"
   height="1161.3333"
   viewBox="0 0 1830.6667 1161.3333"
   sodipodi:docname="case.svg"
   inkscape:version="0.92.2 5c3e80d, 2017-08-06"><metadata
     id="metadata16"><rdf:RDF><cc:Work
         rdf:about=""><dc:format>image/svg+xml</dc:format><dc:type
           rdf:resource="http://purl.org/dc/dcmitype/StillImage" /><dc:title></dc:title></cc:Work></rdf:RDF></metadata><defs
     id="defs14" /><sodipodi:namedview
     pagecolor="#ffffff"
     bordercolor="#666666"
     borderopacity="1"
     objecttolerance="10"
     gridtolerance="10"
     guidetolerance="10"
     inkscape:pageopacity="0"
     inkscape:pageshadow="2"
     inkscape:window-width="1920"
     inkscape:window-height="1149"
     id="namedview12"
     showgrid="false"
     inkscape:zoom="0.84213554"
     inkscape:cx="501.90575"
     inkscape:cy="464.20397"
     inkscape:window-x="1920"
     inkscape:window-y="26"
     inkscape:window-maximized="1"
     inkscape:current-layer="g20"
     inkscape:measure-start="1104.99,579.785"
     inkscape:measure-end="1157.99,535.147" /><g
     id="g18"
     inkscape:groupmode="layer"
     inkscape:label="ink_ext_XXXXXX"
     transform="matrix(1.3333333,0,0,-1.3333333,0,1161.3333)"><g
       id="g20"
       transform="scale(0.1)"><path
         d="m 2519.02,5980.51 h 166.06 v -113.4 h 166.05 v 113.4 h 166.1 v -113.4 h 166.05 v 113.4 h 166.06 v -113.4 h 166.05 v 113.4 h 166.06 v -113.4 h 166.05 v 113.4 h 166.05 v -113.4 h 166.06 v 113.4 h 166.05 m -2440.19,0 H 453.551 v -113.4 H 226.762 v 113.4 H 0 V 3145.82 h 226.762 v 113.4 h 226.789 v -113.4 H 1905.47 m 3053.79,0 h -613.6 m 0,2834.69 h 613.6 m 0,-888.2 v 831.48 m 0,-1776.37 v 831.49 m 0,-1776.37 v 831.49 m -61.37,-472.43 v -415.78 m 0,1360.67 v -831.53 m 0,1776.41 v -831.48 m 0,1360.62 v -415.74 m -61.37,-472.46 v 831.48 m 0,-1776.37 v 831.49 m 0,-1776.37 v 831.49 M 4775.2,3561.6 v -415.78 m 0,1360.67 v -831.53 m 0,1776.41 v -831.48 m 0,1360.62 v -415.74 m -61.37,-472.46 v 831.48 m 0,-1776.37 v 831.49 m 0,-1776.37 v 831.49 m -61.37,-472.43 v -415.78 m 0,1360.67 v -831.53 m 0,1776.41 v -831.48 m 0,1360.62 v -415.74 m -61.37,-472.46 v 831.48 m 0,-1776.37 v 831.49 m 0,-1776.37 v 831.49 m -61.32,-472.43 v -415.78 m 0,1360.67 v -831.53 m 0,1776.41 v -831.48 m 0,1360.62 v -415.74 m -61.37,-472.46 v 831.48 m 0,-1776.37 v 831.49 m 0,-1776.37 v 831.49 m -61.37,-472.43 v -415.78 m 0,1360.67 v -831.53 m 0,1776.41 v -831.48 m 0,1360.62 v -415.74 m -61.37,-472.46 v 831.48 m 0,-1776.37 v 831.49 m 0,-1776.37 v 831.49 M 2519.02,3145.82 h -613.55 m 0,2834.69 h 613.55 m 0,-888.2 v 831.48 m 0,-1776.37 v 831.49 m 0,-1776.37 v 831.49 m -61.36,-472.43 v -415.78 m 0,1360.67 v -831.53 m 0,1776.41 v -831.48 m 0,1360.62 v -415.74 m -61.33,-472.46 v 831.48 m 0,-1776.37 v 831.49 m 0,-1776.37 v 831.49 m -61.37,-472.43 v -415.78 m 0,1360.67 v -831.53 m 0,1776.41 v -831.48 m 0,1360.62 v -415.74 m -61.37,-472.46 v 831.48 m 0,-1776.37 v 831.49 m 0,-1776.37 v 831.49 m -61.36,-472.43 v -415.78 m 0,1360.67 v -831.53 m 0,1776.41 v -831.48 m 0,1360.62 v -415.74 m -61.33,-472.46 v 831.48 m 0,-1776.37 v 831.49 m 0,-1776.37 v 831.49 m -61.37,-472.43 v -415.78 m 0,1360.67 v -831.53 m 0,1776.41 v -831.48 m 0,1360.62 v -415.74 m -61.37,-472.46 v 831.48 m 0,-1776.37 v 831.49 m 0,-1776.37 v 831.49 M 1966.8,3561.6 v -415.78 m 0,1360.67 v -831.53 m 0,1776.41 v -831.48 m 0,1360.62 v -415.74 m -61.33,-472.46 v 831.48 m 0,-1776.37 v 831.49 m 0,-1776.37 v 831.49"
         style="fill:none;stroke:#ef332d;stroke-width:7.5;stroke-linecap:butt;stroke-linejoin:miter;stroke-miterlimit:10;stroke-dasharray:none;stroke-opacity:1"
         id="path22"
         inkscape:connector-curvature="0" /><path
         d="m 4345.66,3145.82 h -166.05 v 113.4 h -166.06 v -113.4 H 3847.5 v 113.4 h -166.05 v -113.4 h -166.06 v 113.4 h -166.05 v -113.4 h -166.1 v 113.4 h -166.01 v -113.4 h -166.1 v 113.4 h -166.05 v -113.4 h -166.06"
         style="fill:none;stroke:#ef332d;stroke-width:7.5;stroke-linecap:butt;stroke-linejoin:miter;stroke-miterlimit:10;stroke-dasharray:none;stroke-opacity:1"
         id="path24"
         inkscape:connector-curvature="0" /><path
         d="m 11210.4,5980.51 h -166.1 v -113.4 h -166 v 113.4 h -166.1 v -113.4 h -166.1 v 113.4 h -166 v -113.4 H 10214 v 113.4 h -166 v -113.4 h -166.09 v 113.4 h -166.05 v -113.4 H 9549.8 v 113.4 h -166.09 m 2440.29,0 h 1451.9 v -113.4 h 226.7 v 113.4 h 226.8 V 3145.82 h -226.8 v 113.4 h -226.7 v -113.4 H 11824 m -3053.84,0 h 613.55 m 0,2834.69 h -613.55 m 0,-888.2 v 831.48 m 0,-1776.37 v 831.49 m 0,-1776.37 v 831.49 m 61.36,-472.43 v -415.78 m 0,1360.67 v -831.53 m 0,1776.41 v -831.48 m 0,1360.62 v -415.74 m 61.33,-472.46 v 831.48 m 0,-1776.37 v 831.49 m 0,-1776.37 v 831.49 m 61.37,-472.43 v -415.78 m 0,1360.67 v -831.53 m 0,1776.41 v -831.48 m 0,1360.62 v -415.74 m 61.37,-472.46 v 831.48 m 0,-1776.37 v 831.49 m 0,-1776.37 v 831.49 m 61.36,-472.43 v -415.78 m 0,1360.67 v -831.53 m 0,1776.41 v -831.48 m 0,1360.62 v -415.74 m 61.33,-472.46 v 831.48 m 0,-1776.37 v 831.49 m 0,-1776.37 v 831.49 m 61.37,-472.43 v -415.78 m 0,1360.67 v -831.53 m 0,1776.41 v -831.48 m 0,1360.62 v -415.74 m 61.37,-472.46 v 831.48 m 0,-1776.37 v 831.49 m 0,-1776.37 v 831.49 m 61.36,-472.43 v -415.78 m 0,1360.67 v -831.53 m 0,1776.41 v -831.48 m 0,1360.62 v -415.74 m 61.33,-472.46 v 831.48 m 0,-1776.37 v 831.49 m 0,-1776.37 v 831.49 m 1826.69,-888.21 h 613.6 m 0,2834.69 h -613.6 m 0,-888.2 v 831.48 m 0,-1776.37 v 831.49 m 0,-1776.37 v 831.49 m 61.3,-472.43 v -415.78 m 0,1360.67 v -831.53 m 0,1776.41 v -831.48 m 0,1360.62 v -415.74 m 61.4,-472.46 v 831.48 m 0,-1776.37 v 831.49 m 0,-1776.37 v 831.49 m 61.4,-472.43 v -415.78 m 0,1360.67 v -831.53 m 0,1776.41 v -831.48 m 0,1360.62 v -415.74 m 61.3,-472.46 v 831.48 m 0,-1776.37 v 831.49 m 0,-1776.37 v 831.49 m 61.4,-472.43 v -415.78 m 0,1360.67 v -831.53 m 0,1776.41 v -831.48 m 0,1360.62 v -415.74 m 61.3,-472.46 v 831.48 m 0,-1776.37 v 831.49 m 0,-1776.37 v 831.49 m 61.4,-472.43 v -415.78 m 0,1360.67 v -831.53 m 0,1776.41 v -831.48 m 0,1360.62 v -415.74 m 61.3,-472.46 v 831.48 m 0,-1776.37 v 831.49 m 0,-1776.37 v 831.49 m 61.4,-472.43 v -415.78 m 0,1360.67 v -831.53 m 0,1776.41 v -831.48 m 0,1360.62 v -415.74 m 61.4,-472.46 v 831.48 m 0,-1776.37 v 831.49 m 0,-1776.37 v 831.49"
         style="fill:none;stroke:#ef332d;stroke-width:7.5;stroke-linecap:butt;stroke-linejoin:miter;stroke-miterlimit:10;stroke-dasharray:none;stroke-opacity:1"
         id="path26"
         inkscape:connector-curvature="0" /><path
         d="m 9383.71,3145.82 h 166.09 v 113.4 h 166.06 v -113.4 h 166.05 v 113.4 H 10048 v -113.4 h 166 v 113.4 h 166.1 v -113.4 h 166 v 113.4 h 166.1 v -113.4 h 166.1 v 113.4 h 166 v -113.4 h 166.1"
         style="fill:none;stroke:#ef332d;stroke-width:7.5;stroke-linecap:butt;stroke-linejoin:miter;stroke-miterlimit:10;stroke-dasharray:none;stroke-opacity:1"
         id="path28"
         inkscape:connector-curvature="0" /><path
         d="m 8770.16,5980.51 c 215.62,0 390.62,174.96 390.62,390.59 M 4959.26,5980.51 h 224.18 v -113.4 h 224.14 v 113.4 h 224.18 v -113.4 h 224.18 v 113.4 h 224.18 v -113.4 h 224.18 v 113.4 h 224.14 v -113.4 h 224.18 v 113.4 h 224.18 v -113.4 h 224.18 v 113.4 h 224.18 v -113.4 h 224.14 v 113.4 h 224.18 v -113.4 h 224.18 v 113.4 h 224.18 v -113.4 h 224.14 v 113.4 h 224.18"
         style="fill:none;stroke:#ef332d;stroke-width:7.5;stroke-linecap:butt;stroke-linejoin:miter;stroke-miterlimit:10;stroke-dasharray:none;stroke-opacity:1"
         id="path30"
         inkscape:connector-curvature="0" /><path
         d="m 9160.78,6371.1 v 166.05 h 113.36 v 166.1 h -113.36 v 166.05 h 113.36 v 166.05 h -113.36 v 166.06 h 113.36 v 166.05 h -113.36 v 166.06 h 113.36 v 166.05 h -113.36 v 166.1 h 113.36 v 166.05 h -113.36 v 166.06"
         style="fill:none;stroke:#ef332d;stroke-width:7.5;stroke-linecap:butt;stroke-linejoin:miter;stroke-miterlimit:10;stroke-dasharray:none;stroke-opacity:1"
         id="path32"
         inkscape:connector-curvature="0" /><path
         d="m 9160.78,8197.78 c 0,215.58 -175,390.58 -390.62,390.58 H 7318.24 v 113.4 h -226.76 v -113.4 h -453.55 v 113.4 h -226.76 v -113.4 H 4959.26 c -215.63,0 -390.63,-175 -390.63,-390.58"
         style="fill:none;stroke:#ef332d;stroke-width:7.5;stroke-linecap:butt;stroke-linejoin:miter;stroke-miterlimit:10;stroke-dasharray:none;stroke-opacity:1"
         id="path34"
         inkscape:connector-curvature="0" /><path
         d="m 4568.63,8197.78 v -166.1 h -113.4 v -166.05 h 113.4 v -166.06 h -113.4 v -166.05 h 113.4 v -166.06 h -113.4 v -166.05 h 113.4 v -166.06 h -113.4 v -166.09 h 113.4 v -166.05 h -113.4 v -166.06 h 113.4 V 6371.1"
         style="fill:none;stroke:#ef332d;stroke-width:7.5;stroke-linecap:butt;stroke-linejoin:miter;stroke-miterlimit:10;stroke-dasharray:none;stroke-opacity:1"
         id="path36"
         inkscape:connector-curvature="0" /><path
         d="m 4568.63,6371.1 c 0,-215.63 175,-390.59 390.63,-390.59"
         style="fill:none;stroke:#ef332d;stroke-width:7.5;stroke-linecap:butt;stroke-linejoin:miter;stroke-miterlimit:10;stroke-dasharray:none;stroke-opacity:1"
         id="path38"
         inkscape:connector-curvature="0" /><path
         d="m 4959.26,3145.82 c -215.63,0 -390.63,-174.96 -390.63,-390.58 m 4201.53,390.58 h -224.18 v 113.4 h -224.14 v -113.4 h -224.18 v 113.4 h -224.18 v -113.4 H 7649.3 v 113.4 h -224.14 v -113.4 h -224.18 v 113.4 H 6976.8 v -113.4 h -224.18 v 113.4 h -224.18 v -113.4 H 6304.3 v 113.4 h -224.18 v -113.4 h -224.18 v 113.4 h -224.18 v -113.4 h -224.18 v 113.4 h -224.14 v -113.4 h -224.18"
         style="fill:none;stroke:#ef332d;stroke-width:7.5;stroke-linecap:butt;stroke-linejoin:miter;stroke-miterlimit:10;stroke-dasharray:none;stroke-opacity:1"
         id="path40"
         inkscape:connector-curvature="0" /><path
         d="m 4568.63,2755.24 v -166.06 h -113.4 v -166.05 h 113.4 v -166.1 h -113.4 v -166.01 h 113.4 v -166.1 h -113.4 v -166.05 h 113.4 v -166.05 h -113.4 v -166.06 h 113.4 v -166.05 h -113.4 v -166.06 h 113.4 V 928.598"
         style="fill:none;stroke:#ef332d;stroke-width:7.5;stroke-linecap:butt;stroke-linejoin:miter;stroke-miterlimit:10;stroke-dasharray:none;stroke-opacity:1"
         id="path42"
         inkscape:connector-curvature="0" /><path
         d="m 4568.63,928.598 c 0,-215.629 175,-390.629 390.63,-390.629 H 6411.17 V 424.57 h 226.76 v 113.399 h 453.55 V 424.57 h 226.76 v 113.399 h 1451.92 c 215.62,0 390.62,175 390.62,390.629"
         style="fill:none;stroke:#ef332d;stroke-width:7.5;stroke-linecap:butt;stroke-linejoin:miter;stroke-miterlimit:10;stroke-dasharray:none;stroke-opacity:1"
         id="path44"
         inkscape:connector-curvature="0" /><path
         d="m 9160.78,928.598 v 166.052 h 113.36 v 166.06 h -113.36 v 166.05 h 113.36 v 166.06 h -113.36 v 166.05 h 113.36 v 166.05 h -113.36 v 166.1 h 113.36 v 166.01 h -113.36 v 166.1 h 113.36 v 166.05 h -113.36 v 166.06"
         style="fill:none;stroke:#ef332d;stroke-width:7.5;stroke-linecap:butt;stroke-linejoin:miter;stroke-miterlimit:10;stroke-dasharray:none;stroke-opacity:1"
         id="path46"
         inkscape:connector-curvature="0" /><path
         d="m 9160.78,2755.24 c 0,215.62 -175,390.58 -390.62,390.58"
         style="fill:none;stroke:#ef332d;stroke-width:7.5;stroke-linecap:butt;stroke-linejoin:miter;stroke-miterlimit:10;stroke-dasharray:none;stroke-opacity:1"
         id="path48"
         inkscape:connector-curvature="0" /><g
         id="g50"
         transform="scale(10)"><text
           transform="matrix(1,0,0,-1,505.54,1.78203)"
           style="font-variant:normal;font-size:10px;font-family:f-0;-inkscape-font-specification:f-0-0;writing-mode:lr-tb;fill:#3350aa;fill-opacity:1;fill-rule:nonzero;stroke:none"
           id="text54"><tspan
             x="0"
             y="0"
             id="tspan52">.</tspan></text>
</g><path
         d="m 5067.89,27.8203 c -2.97,0 -5.47,-2.5 -5.47,-5.6328 0,-2.9687 2.5,-5.4687 5.31,-5.4687 3.13,0 5.79,2.3515 5.79,5.4687 0,2.9727 -2.66,5.6328 -5.63,5.6328 z"
         style="fill:none;stroke:#ef332d;stroke-width:10;stroke-linecap:butt;stroke-linejoin:miter;stroke-miterlimit:10;stroke-dasharray:none;stroke-opacity:1"
         id="path56"
         inkscape:connector-curvature="0" /><path
         d="M 5658.55,1056.1 H 8070.82 V 2660.51 H 5658.55 Z"
         style="fill:none;stroke:#ef332d;stroke-width:2.16000009;stroke-linecap:butt;stroke-linejoin:miter;stroke-miterlimit:22.92560005;stroke-dasharray:none;stroke-opacity:1"
         id="path58"
         inkscape:connector-curvature="0" /><path
         d="m 5616.05,2292 c 0,23.43 -19.1,42.53 -42.53,42.53 -23.4,0 -42.5,-19.1 -42.5,-42.53 0,-23.4 19.1,-42.5 42.5,-42.5 23.43,0 42.53,19.1 42.53,42.5 z"
         style="fill:none;stroke:#ef332d;stroke-width:2.16000009;stroke-linecap:butt;stroke-linejoin:miter;stroke-miterlimit:22.92560005;stroke-dasharray:none;stroke-opacity:1"
         id="path60"
         inkscape:connector-curvature="0" /><path
         d="m 5616.05,1424.61 c 0,23.4 -19.1,42.5 -42.53,42.5 -23.4,0 -42.5,-19.1 -42.5,-42.5 0,-23.43 19.1,-42.54 42.5,-42.54 23.43,0 42.53,19.11 42.53,42.54 z"
         style="fill:none;stroke:#ef332d;stroke-width:2.16000009;stroke-linecap:butt;stroke-linejoin:miter;stroke-miterlimit:22.92560005;stroke-dasharray:none;stroke-opacity:1"
         id="path62"
         inkscape:connector-curvature="0" /><path
         d="m 8198.4,2292 c 0,23.43 -19.1,42.53 -42.5,42.53 -23.44,0 -42.54,-19.1 -42.54,-42.53 0,-23.4 19.1,-42.5 42.54,-42.5 23.4,0 42.5,19.1 42.5,42.5 z"
         style="fill:none;stroke:#ef332d;stroke-width:2.16000009;stroke-linecap:butt;stroke-linejoin:miter;stroke-miterlimit:22.92560005;stroke-dasharray:none;stroke-opacity:1"
         id="path64"
         inkscape:connector-curvature="0" /><path
         d="m 8198.4,1424.61 c 0,23.4 -19.1,42.5 -42.5,42.5 -23.44,0 -42.54,-19.1 -42.54,-42.5 0,-23.43 19.1,-42.54 42.54,-42.54 23.4,0 42.5,19.11 42.5,42.54 z"
         style="fill:none;stroke:#ef332d;stroke-width:2.16000009;stroke-linecap:butt;stroke-linejoin:miter;stroke-miterlimit:22.92560005;stroke-dasharray:none;stroke-opacity:1"
         id="path66"
         inkscape:connector-curvature="0" /><path
         d="m 5142.03,3732.31 h 2919.69 v 1644.1 H 5142.03 Z"
         style="fill:none;stroke:#ef332d;stroke-width:2.16000009;stroke-linecap:butt;stroke-linejoin:miter;stroke-miterlimit:22.92560005;stroke-dasharray:none;stroke-opacity:1"
         id="path68"
         inkscape:connector-curvature="0" /><path
         d="m 7162.34,7031.41 c 19.07,0 34.5,15.47 34.5,34.49 0,19.02 -15.43,34.49 -34.5,34.49 -19.06,0 -34.49,-15.47 -34.49,-34.49 0,-19.02 15.43,-34.49 34.49,-34.49 z"
         style="fill:none;stroke:#ef332d;stroke-width:2.16000009;stroke-linecap:butt;stroke-linejoin:miter;stroke-miterlimit:22.92560005;stroke-dasharray:none;stroke-opacity:1"
         id="path74"
         inkscape:connector-curvature="0" /><path
         d="m 6567.07,7031.41 c 19.06,0 34.49,15.43 34.49,34.49 0,19.02 -15.43,34.49 -34.49,34.49 -19.06,0 -34.49,-15.47 -34.49,-34.49 0,-19.06 15.43,-34.49 34.49,-34.49 z"
         style="fill:none;stroke:#ef332d;stroke-width:2.16000009;stroke-linecap:butt;stroke-linejoin:miter;stroke-miterlimit:22.92560005;stroke-dasharray:none;stroke-opacity:1"
         id="path76"
         inkscape:connector-curvature="0" /><path
         d="m 7162.34,7385.75 c 19.07,0 34.5,15.43 34.5,34.49 0,19.02 -15.43,34.45 -34.5,34.45 -19.06,0 -34.49,-15.43 -34.49,-34.45 0,-19.06 15.43,-34.49 34.49,-34.49 z"
         style="fill:none;stroke:#ef332d;stroke-width:2.16000009;stroke-linecap:butt;stroke-linejoin:miter;stroke-miterlimit:22.92560005;stroke-dasharray:none;stroke-opacity:1"
         id="path78"
         inkscape:connector-curvature="0" /><path
         d="m 6567.07,7385.75 c 19.02,0 34.49,15.43 34.49,34.49 0,19.02 -15.47,34.45 -34.49,34.45 -19.02,0 -34.49,-15.43 -34.49,-34.45 0,-19.06 15.47,-34.49 34.49,-34.49 z"
         style="fill:none;stroke:#ef332d;stroke-width:2.16000009;stroke-linecap:butt;stroke-linejoin:miter;stroke-miterlimit:22.92560005;stroke-dasharray:none;stroke-opacity:1"
         id="path80"
         inkscape:connector-curvature="0" /><path
         d="m 6981.95,7518.17 v -195.86 c 0,-10.67 -8.67,-19.3 -19.29,-19.3 H 6766.8 c -10.67,0 -19.34,8.63 -19.34,19.3 v 195.86 c 0,10.66 8.67,19.29 19.34,19.29 h 195.86 c 10.62,0 19.29,-8.67 19.29,-19.29 z"
         style="fill:none;stroke:#ef332d;stroke-width:2.16000009;stroke-linecap:butt;stroke-linejoin:miter;stroke-miterlimit:22.92560005;stroke-dasharray:none;stroke-opacity:1"
         id="path82"
         inkscape:connector-curvature="0" /><path
         d="m 8739.4672,5079.8913 c 0,147.7229 -120.4928,268.2157 -268.2157,268.2157 -147.7228,0 -268.1658,-120.4928 -268.1658,-268.2157 0,-147.7228 120.443,-268.2156 268.1658,-268.2156 147.7229,0 268.2157,120.4928 268.2157,268.2156 z"
         style="fill:none;stroke:#040606;stroke-width:2.15130305;stroke-linecap:butt;stroke-linejoin:miter;stroke-miterlimit:22.92560005;stroke-dasharray:none;stroke-opacity:1"
         id="path84"
         inkscape:connector-curvature="0" /><path
         d="m 8740.1025,4018.4446 c 0,147.6822 -120.4687,268.1509 -268.1614,268.1509 -147.6822,0 -268.1509,-120.4687 -268.1509,-268.1509 0,-147.6927 120.4687,-268.1614 268.1509,-268.1614 147.6927,0 268.1614,120.4687 268.1614,268.1614 z"
         style="fill:none;stroke:#040606;stroke-width:2.2704165;stroke-linecap:butt;stroke-linejoin:miter;stroke-miterlimit:22.92560005;stroke-dasharray:none;stroke-opacity:1"
         id="path86"
         inkscape:connector-curvature="0" /><path
         d="m 5028.63,3668.48 h 3146.48 v 1771.8 H 5028.63 Z"
         style="fill:none;stroke:#040606;stroke-width:2.16000009;stroke-linecap:butt;stroke-linejoin:miter;stroke-miterlimit:22.92560005;stroke-dasharray:none;stroke-opacity:1"
         id="path88"
         inkscape:connector-curvature="0" /><path
         d="m 3148.91,4145.04 h 566.91 v 525.811 h -566.91 z"
         style="fill:none;stroke:#ef332d;stroke-width:1.65752423;stroke-linecap:butt;stroke-linejoin:miter;stroke-miterlimit:22.92560005;stroke-dasharray:none;stroke-opacity:1"
         id="path90"
         inkscape:connector-curvature="0" /><g
         id="g92"
         transform="scale(10)"><text
           transform="scale(1,-1)"
           style="font-style:normal;font-variant:normal;font-weight:normal;font-stretch:normal;font-size:18px;font-family:monospace;-inkscape-font-specification:'monospace, Normal';font-variant-ligatures:normal;font-variant-caps:normal;font-variant-numeric:normal;font-feature-settings:normal;text-align:start;writing-mode:lr-tb;text-anchor:start;fill:#000000;fill-opacity:1;fill-rule:nonzero;stroke:none"
           id="text100"
           x="786.29211"
           y="-79.115463"><tspan
             sodipodi:role="line"
             id="tspan98"
             x="786.29211"
             y="-79.115463">/dev/pola</tspan></text>
<text
           style="font-style:normal;font-variant:normal;font-weight:normal;font-stretch:normal;font-size:26px;font-family:monospace;-inkscape-font-specification:'monospace, Normal';font-variant-ligatures:normal;font-variant-caps:normal;font-variant-numeric:normal;font-feature-settings:normal;text-align:start;writing-mode:lr-tb;text-anchor:start;fill:#000000;fill-opacity:1;fill-rule:nonzero;stroke:none;stroke-width:0.99999994"
           id="text100-6"
           x="-623.77344"
           y="828.47931"
           transform="scale(-1,1)"><tspan
             style="font-style:normal;font-variant:normal;font-weight:normal;font-stretch:normal;font-size:26px;font-family:monospace;-inkscape-font-specification:'monospace, Normal';font-variant-ligatures:normal;font-variant-caps:normal;font-variant-numeric:normal;font-feature-settings:normal;text-align:start;writing-mode:lr-tb;text-anchor:start;stroke-width:0.99999994"
             sodipodi:role="line"
             id="tspan98-4"
             x="-623.77344"
             y="828.47931">/dev/pola</tspan></text>
</g><text
         xml:space="preserve"
         style="font-style:normal;font-variant:normal;font-weight:normal;font-stretch:normal;font-size:100px;line-height:1.25;font-family:monospace;-inkscape-font-specification:'monospace, Normal';font-variant-ligatures:normal;font-variant-caps:normal;font-variant-numeric:normal;font-feature-settings:normal;text-align:start;letter-spacing:0px;word-spacing:0px;writing-mode:lr-tb;text-anchor:start;fill:#000000;fill-opacity:1;stroke:none;stroke-width:7.5"
         x="8265.1738"
         y="-4699.5195"
         id="text104"
         transform="scale(1,-1)"><tspan
           sodipodi:role="line"
           id="tspan102"
           x="8265.1738"
           y="-4699.5195"
           style="font-style:normal;font-variant:normal;font-weight:normal;font-stretch:normal;font-size:100px;font-family:monospace;-inkscape-font-specification:'monospace, Normal';font-variant-ligatures:normal;font-variant-caps:normal;font-variant-numeric:normal;font-feature-settings:normal;text-align:start;writing-mode:lr-tb;text-anchor:start;stroke-width:7.5">shutter</tspan></text>
<text
         xml:space="preserve"
         style="font-style:normal;font-variant:normal;font-weight:normal;font-stretch:normal;font-size:100px;line-height:1.25;font-family:monospace;-inkscape-font-specification:'monospace, Normal';font-variant-ligatures:normal;font-variant-caps:normal;font-variant-numeric:normal;font-feature-settings:normal;text-align:start;letter-spacing:0px;word-spacing:0px;writing-mode:lr-tb;text-anchor:start;fill:#000000;fill-opacity:1;stroke:none;stroke-width:7.5"
         x="8337.6768"
         y="-3631.4727"
         id="text104-0"
         transform="scale(1,-1)"><tspan
           sodipodi:role="line"
           x="8337.6768"
           y="-3631.4727"
           style="font-style:normal;font-variant:normal;font-weight:normal;font-stretch:normal;font-size:100px;font-family:monospace;-inkscape-font-specification:'monospace, Normal';font-variant-ligatures:normal;font-variant-caps:normal;font-variant-numeric:normal;font-feature-settings:normal;text-align:start;writing-mode:lr-tb;text-anchor:start;stroke-width:7.5"
           id="tspan124">info</tspan></text>
<text
         xml:space="preserve"
         style="font-style:normal;font-variant:normal;font-weight:normal;font-stretch:normal;font-size:100px;line-height:1.25;font-family:monospace;-inkscape-font-specification:'monospace, Normal';font-variant-ligatures:normal;font-variant-caps:normal;font-variant-numeric:normal;font-feature-settings:normal;text-align:start;letter-spacing:0px;word-spacing:0px;writing-mode:lr-tb;text-anchor:start;fill:#000000;fill-opacity:1;stroke:none;stroke-width:7.5"
         x="-4952.7407"
         y="-3762.2661"
         id="text104-9"
         transform="matrix(0,-1,-1,0,0,0)"><tspan
           sodipodi:role="line"
           id="tspan102-1"
           x="-4952.7407"
           y="-3762.2661"
           style="font-style:normal;font-variant:normal;font-weight:normal;font-stretch:normal;font-size:100px;font-family:monospace;-inkscape-font-specification:'monospace, Normal';font-variant-ligatures:normal;font-variant-caps:normal;font-variant-numeric:normal;font-feature-settings:normal;text-align:start;writing-mode:lr-tb;text-anchor:start;stroke-width:7.5">off</tspan></text>
<path
         d="m 8693.6828,5082.8743 c 0,122.7344 -100.0972,222.7894 -222.8316,222.7894 -122.6924,0 -222.7789,-100.055 -222.7789,-222.7894 0,-122.7343 100.0865,-222.8313 222.7789,-222.8313 122.7344,0 222.8316,100.097 222.8316,222.8313 z"
         style="fill:none;stroke:#ef332d;stroke-width:2.26373672;stroke-linecap:butt;stroke-linejoin:miter;stroke-miterlimit:22.92560005;stroke-dasharray:none;stroke-opacity:1"
         id="path70-1"
         inkscape:connector-curvature="0" /><path
         d="m 8696.0155,4017.7903 c 0,122.7344 -100.0972,222.7894 -222.8316,222.7894 -122.6924,0 -222.7789,-100.055 -222.7789,-222.7894 0,-122.7343 100.0865,-222.8313 222.7789,-222.8313 122.7344,0 222.8316,100.097 222.8316,222.8313 z"
         style="fill:none;stroke:#ef332d;stroke-width:2.26373672;stroke-linecap:butt;stroke-linejoin:miter;stroke-miterlimit:22.92560005;stroke-dasharray:none;stroke-opacity:1"
         id="path70-1-9"
         inkscape:connector-curvature="0" /><text
         xml:space="preserve"
         style="font-style:normal;font-variant:normal;font-weight:normal;font-stretch:normal;font-size:100px;line-height:1.25;font-family:monospace;-inkscape-font-specification:'monospace, Normal';font-variant-ligatures:normal;font-variant-caps:normal;font-variant-numeric:normal;font-feature-settings:normal;text-align:start;letter-spacing:0px;word-spacing:0px;writing-mode:lr-tb;text-anchor:start;fill:#000000;fill-opacity:1;stroke:none;stroke-width:7.5"
         x="-4928.1099"
         y="-3054.4243"
         id="text104-9-3"
         transform="matrix(0,-1,-1,0,0,0)"><tspan
           sodipodi:role="line"
           id="tspan102-1-4"
           x="-4928.1099"
           y="-3054.4243"
           style="font-style:normal;font-variant:normal;font-weight:normal;font-stretch:normal;font-size:100px;font-family:monospace;-inkscape-font-specification:'monospace, Normal';font-variant-ligatures:normal;font-variant-caps:normal;font-variant-numeric:normal;font-feature-settings:normal;text-align:start;writing-mode:lr-tb;text-anchor:start;stroke-width:7.5">on</tspan></text>
<path
         d="M 3148.9702,4670.851 H 3715.82 v 367.119 h -566.8498 z"
         style="fill:none;stroke:#ef332d;stroke-width:1.38492298;stroke-linecap:butt;stroke-linejoin:miter;stroke-miterlimit:22.92560005;stroke-dasharray:none;stroke-opacity:1"
         id="path90-2"
         inkscape:connector-curvature="0" /></g></g></svg>